<svg xmlns="http://www.w3.org/2000/svg" clip-rule="evenodd" fill-rule="evenodd" image-rendering="optimizeQuality" shape-rendering="geometricPrecision" text-rendering="geometricPrecision" viewBox="0 0 265.2 233.1" fill='currentColor'><path d="M82 0q5.6-.1 10.5 2L99 1q-.5 3.6-.5 7 5.4 3 10 7-1.8 5 2.5 8 1.8 4 .5 8a62 62 0 0 0-5.5 13.5q-6 1.7-12 2A96 96 0 0 0 79.5 52q.6 5.5 3.5 10.5-1.2 3.2-3.5 5.5-1 1.5 0 3 4.3 1 8.5 2.5 2.7 3.6 6 6.5-2 2.8 0 5.5-1.2 1.7-2 3.5-2.3.6-5 .5a32 32 0 0 0-5.5 7.5 54 54 0 0 1-3-7q-3.3-1.8-6.5.5-3.3 9-13 9.5a12 12 0 0 0-9.5-5L46 96q-1.5 4.2-5.5 6 0 4.2-3 7-6.3-6.5-11 1a3 3 0 0 1-2.5-2 27 27 0 0 0 4-7.5 34 34 0 0 0-7-4.5 29 29 0 0 0-5-16.5q14.3-10 26-23 3.4-.3 6.5-1.5.4-5.2 1.5-10.5Q60.8 37 55 25a16 16 0 0 1 8-4.5 7 7 0 0 0 1-4.5q5 .3 10-.5L76 8q2.3-4.5 6-8m152 21 6 1a17 17 0 0 0 8 13.5q6.5 3.2 12.5-.5 5.8 5.5 4.5 13-5.1 0-10-2-2.7 0-3 2.5 4.2 3.7 7.5 8.5.2 4.5 2.5 8a27 27 0 0 0-3.5 6q-4.2-2.4-6.5 2-5-2.2-8.5 2 .5 8.8-5.5 3.5a4 4 0 0 0-4 0q-1 3.1-1 6-4.5 1.5-9 2a7 7 0 0 0-3.5 2.5 15 15 0 0 0-2.5 10 10 10 0 0 0-9-3l-6 .5q-3 2-1 5 5.6 1.5 9.5 5.5 1 1.5-.5 2.5-6.4-.3-13-1-7-3.6-15-2l-3 3q-6.7 1.5-13.5 2.5-2.5 0-4-2a9 9 0 0 0-3.5-7 11 11 0 0 1-12 3.5 10 10 0 0 1-3-11.5q2.2-5.4 6.5-10-.8-6-2.5-12.5 2.4-2.4 4-5.5a5 5 0 0 0-1-2.5q-2.3-.5-4-2 6.3-8.4-2-15a8 8 0 0 0-4-.5q0-5.3 4-8.5 7-.4 14 0a14 14 0 0 1 3-4q3.8-.2 7-2a53 53 0 0 1 16 1 8 8 0 0 1 2 5.5h7q0 4.8 5 5.5a14 14 0 0 1 3 4q2.4.9 5 1.5 2.5-2.5 6-4l8 3q0-2 1-4l6.5-3 1-5q3-1.2 6-2 5.2-4.5-2-6-.7-4 .5-8"/><path d="M148 24q1.5-.2 3 .5-1.5 1.2-2 3 1.3 2.2.5 4.5a8 8 0 0 0 5.5 2.5q-5.2 2-11 2-6.3 4.5-4 12 3.3.3 5.5 2.5.6 3 2.5 5a32 32 0 0 0-3 7q1.5 3 5 4a6 6 0 0 0-4 5q.5 5.7 3 10.5l-3.5 5.5q-.3-3.3-2.5-5.5-5.5-1-11 0l-1.5 1.5q-5-1-10-3a72 72 0 0 1-8 3 7 7 0 0 0-3-5q-6.7-1-13.5-1.5-4.5-2-7-6-3.8-1.5-8-2 7.6-7.8 0-16 6.8-2.6 14-5 6.7-.2 13-2.5a177 177 0 0 1 7-20q6 .2 8 5.5 3.8 1 7.5-.5a25 25 0 0 0 6 3q3.3-1.3 2.5-5 6.8 1.1 9-5"/><path d="M96 80q6.7-.6 13 1.5 2 6 3 12a14 14 0 0 1-7.5 3.5 148 148 0 0 0-1.5 22h3q-1.2 5.1-4.5 9-.8 3-.5 6-5.9.3-11.5 2-7-4.6-12 2-3.7-2-6 2-2.9-2.5-6.5-1.5a63 63 0 0 1-10 9q-5.6.5-11-1.5-.3-5.7-2.5-11l-1 1q-3-4-6 0a7 7 0 0 0-3.5-5.5q4.5-1.8 2-6a38 38 0 0 0-10 1q-2.7 1.5-3.5 4.5a25 25 0 0 1-.5-7 13 13 0 0 0-5 .5q-4.4 4.3-10 1 3.8-2.8 0-6 1.5-3 1-6.5-2.6.5-5-1 9.1-1.6 18-4 .8-5.7-5-6a7 7 0 0 1 5.5-3q3 1.7 6.5 2-.5 4.2-3 7.5 1 6.1 7 4a8 8 0 0 1 3-3.5q9.4 7 10.5-5a58 58 0 0 0 7.5-6q4.5.4 6 4.5 11.8 2.3 16.5-8.5 6-4 6 4 1 1.6 3 2 4.2-3.3 7-8 2.5 2 5 0 1.5-2.7 2.5-5.5a5 5 0 0 1 0-5.5"/><path d="M119 83q9 4.3 18.5 1l4.5.5 2 7.5q-6.3 8.9 2 16.5 5.5 1 11 0 .9-1.1 1.5-2.5 1.4 4.4 4.5 7.5 6 .3 12 0-1.2 3.4-2 7 4 5.5 0 11 2.2 3.2 5.5 5.5.7 4.4-2 8a4 4 0 0 0-3.5-2q-5.6 1.5-11 3.5-9.3 7.2-17.5 15.5-3-2.5-7-4-12.9 9.6-12-7-7.3-5.3-12.5-12.5-4.5-2.3-9-.5-2-4.5 0-9 2.8-3.5 4-8a8 8 0 0 0-3-6q-.3-8 1.5-16 3.7-1 7-3V86q3.3-.8 5.5-3"/><path d="M182 233q-4.4-3.3-5-9 .3-3 1.5-6 6-3.3 4-10a35 35 0 0 0-7-14q-.8-5 .5-10l-.5-3a7 7 0 0 1-3-3q.5-11.5-4-22a10 10 0 0 1-5.5-6q.5-1.7 2-2.5 4.2-.7 8-2.5a11 11 0 0 0 3.5 2q9.8-8.6-1.5-15.5 2.4-2.7 2.5-6.5 9.3 4.3 19.5 6.5a6 6 0 0 0 4 4q-5.4 1.7-3 6.5 5 5.7 9.5 0 2.8 2.7 3.5 6.5 3.3 1.2 5.5-1.5 3.2 3.9 2.5 9 2.7.3 5-1 3.1 1.5 6 3.5-6 .3-4 5.5l7.5 3a5 5 0 0 0 4 5q.1 3.8 2.5 6.5-3.1 4.7-8.5 5.5-3 5.9-4.5 12-16.2-2.2-6 10.5-5 2-8 6a4 4 0 0 0 1 2q4.7.7 8 4l-1 1q-7.8-2.2-12.5 4.5-6.5-3.5-12 2-1.5-5-6.5-3.5-3 2.2-5 5a3.5 3.5 0 0 0 3 3 6 6 0 0 1-6 2.5M70 213l-6.5 2q-1.2 4.4 3.5 4.5-.9.6-1 1.5-2.6-.3-4.5-2-.9-7.6-6.5-13 1-1.6 2.5-3l1.5-10.5q0-2.7-2-4.5 4.5-4.5-1-7-9 1.2-18 1.5a7 7 0 0 1-6 3q-1.7-1.1 0-2.5a34 34 0 0 1-6.5-16 53 53 0 0 1-8.5-20q1.8-3.7 4.5-7 4.8 2.5 10 4a70 70 0 0 1 6-8q0 5.7 3 2 1.2 5 1.5 10 5.3.8 10.5 2 4.5-.6 9-2 2.8 8 12.5 10 3-1.8 6 0 5.3 4 9 9.5-2.5.2-5-1-4.8-6-13-6.5-1.2 4-.5 8 4.6 1.2 7.5 5a16 16 0 0 0-2.5 9q8.1 4.6 10.5 13.5-1.4 3.9-5 6-4-1.6-7 1.5-1.3 5.5-4 10"/><path d="M82 136q4 0 7.5 2l9.5-2 5 4q7.6-2.5 10.5 5 5.7 4.5 9.5 10-1.7 6.9-7 3a9 9 0 0 0-6 6.5 42 42 0 0 1-8 3.5q-1.8 2.3 0 4.5-.8 1.5-2 2.5-2.7.4-6 .5-4.5 5.3 2 8-1.6.5-3 1.5-.5 6-5.5 9A28 28 0 0 0 77 180.5q8-10.8-5-13.5 0-2.7 1.5-5 7 2.8 12.5 7.5 3.6 1.5 5-2a21 21 0 0 0-21-13q-4.5-2-3-6.5a11 11 0 0 0-6-2.5q3.3-2.5 6-5.5 4.8 4.5 8.5-1 4.8 2 6.5-3"/><path d="m175 224-3.5 3q-4.5-1.2-.5-4a26 26 0 0 0-20.5-10q-5.7.6-11 3a6 6 0 0 0-5.5-1.5q-4.5 4-8 9a5 5 0 0 1-3 .5q.3-2-.5-4-3.3-1-5.5-3.5-8 .3-16 0l-2-4q-3.8-.6-7-2.5-5.1 1-9 4-5.4-1.4-11-1 3-4.8 5.5-10 3.3 2 6.5-.5 4.2-6.3 10.5-10.5-.8-6.3 5.5-7-2.2-4-4.5-7 3.8.5 7.5-1.5 2.8-2.7 1-6a35 35 0 0 0 9-4.5q1.2-3.9 4.5-6a4 4 0 0 0 2.5 3l4-3q6.6 7.8 13.5 0 3 2.7 7 4l16-14q1.5 5 6 7 .9 3.8 3 7 1.2 5.6-.5 11a20 20 0 0 0 5 9 18 18 0 0 0 4.5 19q3 5.3 1.5 11a11 11 0 0 0-5 10"/></svg>