<svg xmlns="http://www.w3.org/2000/svg" xmlns:xlink="http://www.w3.org/1999/xlink" version="1.0" viewBox="0 0 27 18" fill='currentColor'><defs><g id="prefix__c"><g id="prefix__b"><path id="prefix__a" d="M0 0v1h.5L0 0z" transform="rotate(18 3.157 -.5)"/><use xlink:href="#prefix__a" transform="scale(-1 1)" width="27" height="18"/></g><use xlink:href="#prefix__b" transform="rotate(72)" width="27" height="18"/><use xlink:href="#prefix__b" transform="rotate(144)" width="27" height="18"/><use xlink:href="#prefix__b" transform="rotate(-144)" width="27" height="18"/><use xlink:href="#prefix__b" transform="rotate(-72)" width="27" height="18"/></g></defs><g transform="translate(13.5 9.183) scale(1.91555)"><use xlink:href="#prefix__c" transform="translate(0 -6)" width="27" height="18"/><g id="prefix__d"><use xlink:href="#prefix__c" transform="rotate(72 -5.076 .534)" width="27" height="18"/><use xlink:href="#prefix__c" transform="rotate(72 -4.663 -2.076)" width="27" height="18"/><use xlink:href="#prefix__c" transform="translate(6)" width="27" height="18"/><use xlink:href="#prefix__c" transform="rotate(144 -2.11 -2.344)" width="27" height="18"/><use xlink:href="#prefix__c" transform="rotate(-144 -2.344 -2.11)" width="27" height="18"/></g><use xlink:href="#prefix__c" transform="translate(0 6)" width="27" height="18"/><use xlink:href="#prefix__d" transform="scale(-1 1)" width="27" height="18"/></g></svg>