<svg xmlns="http://www.w3.org/2000/svg" viewBox="0 0 57.288 122.88" fill="currentColor"><path fill-rule="evenodd" clip-rule="evenodd" d="M32.499 0c4.436 0 7.926 1.281 10.468 3.819 2.515 2.53 3.785 6.007 3.785 10.481 0 4.538-2.163 8.572-6.521 12.11-4.381 3.538-9.463 5.318-15.254 5.318-4.352 0-7.812-1.218-10.465-3.66-2.651-2.47-3.976-5.665-3.976-9.639 0-5.007 2.163-9.322 6.465-12.987C21.301 1.816 26.465 0 32.499 0zm24.789 122.88H0v-9.64h10.765V54.36H0v-7.674h26.775c6.763 0 13.418-.812 19.992-2.47v69.024h10.521v9.64z"/></svg>