<svg xmlns="http://www.w3.org/2000/svg" viewBox="0 0 139.1 101.3" fill='currentColor'><path d="M125.9 29q-5.7-1.4-6 4-2 .3-3.5-1l-2.5 2.5q1.8 1.7 0 3.5-3.5 1.5-7 2a18 18 0 0 0-7-2q-.3-5.6 1-11-.5-2.5-2-4 1.5-1 3.5-2 .3-3 1.5-5.5a9 9 0 0 0 8-4.5 9 9 0 0 0-4.5-3q-.7-4 .5-8l6 1a17 17 0 0 0 8 13.5q6.3 3.2 12.5-.5 5.7 5.5 4.5 13-5.2 0-10-2-3.8.4-3 4M67 23.6q-.9 2.9-3 5-7.2 3-12-3-3.3 2.1-5.5-1a4 4 0 0 1-3.5 2q0-.7-.5-1-5.7 3.9-12.5 3a9 9 0 0 0-1-5.5 19 19 0 0 0-9.5-1.5L19 20q5-2.8 1-6.5 1.5.2 3-.5a14 14 0 0 1 3-4 59 59 0 0 0 11.5-2.5L49 8a8 8 0 0 1 2 5.5h7q-.3 1.5.5 3 5.4 2.1 8.5 7m-52-2.3q4 3.7-1 6.5l.5 1.5a19 19 0 0 1 9.5 1.5 9 9 0 0 1 1 5.5q7 .9 12.5-3 .6.3.5 1-3.3 6.6-6 13.5 1.8 3 4 5.5.2 1.3-1 2l-8 2.5q-2 2.7-5 3.5l-5 4a8 8 0 0 0-9-5 13 13 0 0 0-1-5.5q2.4-2.5 4-5.5a5 5 0 0 0-1-2.5q-2.3-.5-4-2 6.3-8.4-2-15a8 8 0 0 0-4-.5q0-5.4 4-8.5 5.6-1 11 .5"/><path d="M94.6 25q1.6 1.5 2 4-1.2 5.3-1 11 4 .3 7 2a64 64 0 0 0-3.5 10 9 9 0 0 1-3 4 4 4 0 0 0 0 4q3.7 3 .5 5a167 167 0 0 0-11.5-10l-1.5 1.4q1.3 1.5 1 3.5-3.2.6-5-2 .4-3.4-2-6a36 36 0 0 1-8-6 56 56 0 0 1 6-6.5l-6-4.5q2.1-2 3-5l4 1q2.6-2.5 6-4l8 3q-.5-4.5 4-5"/><path d="m64.3 33.4 6 4.5a56 56 0 0 0-6 6.5 36 36 0 0 0 8 6 7 7 0 0 1 2 6q-6-1-11.5 2-2.5 0-4-2-1 1-2.5 1 .2-1.6-1-2.5-4 .3-8 0-1.5-4.4-6-4.5a33 33 0 0 1-4-5.5q2.7-7 6-13.5a4 4 0 0 0 3.5-2q2.3 3 5.5 1 4.8 5.9 12 3m62.4-.5q3 1.8 5.5 4 2.5 5.4 4.5 11a27 27 0 0 0-3.5 6q-4.2-2.5-6.5 2-4.8-2.2-8.5 2 .5 8.7-5.5 3.5-7-1.5-4 5-2.3 1.7-5 2.5l-2-2q3.3-2-.5-5a4 4 0 0 1 0-4 9 9 0 0 0 3-4q1.5-5.2 3.5-10 3.7-.5 7-2 1.8-1.8 0-3.5l2.5-2.5q1.5 1.3 3.5 1 .5-5.5 6-4"/><path d="M47.7 54.8q4.5.1 6 4.5 4 .3 8 0 1 1 1 2.5-5 7-5.5 16-1.7 1.8-3.5 0a3 3 0 0 0-2 2q-5.3 1.3-11 2-3.4-.2-6-2 .4-1.2 1.5-2 5 3.9 8.5-2-4.2-4.3-6.5-10-2.2-2-4.5-3 3-.9 5-3.5l8-2.5q1.2-.8 1-2"/><path d="m99.8 70 2 2q-12.3.6-10 12.6-2.5.4-4-2-6-1-12 0a5 5 0 0 0-2 4.5q-7-1.3-14-.5a13 13 0 0 0-6-4.5 3 3 0 0 1 2-2q1.8 1.8 3.5 0 .6-9 5.5-16 1.5 0 2.5-1 1.5 2 4 2 5.6-3 11.5-2 1.7 2.6 5 2 .3-2-1-3.5l1.5-1.5q6 4.7 11.5 10M9 65.1a8 8 0 0 1 9 5q1.8 5 0 10-1 3.5-4 1a3 3 0 0 0-2 2 52 52 0 0 1-9 3q1.9-4.4 3.6-9a10 10 0 0 0 4-10 4 4 0 0 1-1.5-2M27 61.4q2.3 1 4.5 3 2.3 5.5 6.5 10-3.4 5.8-8.5 2-1.2.8-1.5 2l-6-3q1.5-5.2 0-10zm2.2 20.9 6 3q2.6 1.8 6 2 5.8-.7 11-2a13 13 0 0 1 6 4.5q7-.9 14 .5 6.8 1.5 11 7a3 3 0 0 1-2 2 97 97 0 0 1-21.5-4 8 8 0 0 0-8.5 3.5q-6.7 1.5-13.5 2.5-2.5 0-4-2-1-11.6-7.5-3 .3-4.5-.5-9-1.5-1-2.5-2a3 3 0 0 1 2-2q3 2.4 4-1m-11.8 3.5q1 1.2 2.5 2 .7 4.5.5 9-4 .2-8-.5-3-3.3-4-7.5 4.6-1.2 9-3"/></svg>