<svg version="1.0" viewBox="0 0 550 600" xmlns="http://www.w3.org/2000/svg" fill='currentColor'><path d="M62.303 339.4l1.03 3.684c1.235 4.502.618 5.628-3.193 5.628-2.06 0-3.707-.92-5.56-3.377-2.679-3.274-2.679-3.274-2.679-.716 0 2.046 1.03 3.171 4.635 5.116 6.18 3.376 7.105 6.549 2.985 9.925-2.265 1.842-4.118 2.354-7.208 2.15-3.09-.103-5.047.409-7.107 2.046-2.781 2.25-2.884 2.456-1.545 6.345 1.854 5.423 5.46 8.697 9.373 8.39 2.678-.307 3.192.102 5.15 4.502 1.132 2.762 1.853 5.832 1.544 6.856-.309 1.33.104 2.15 1.442 2.456 2.266.614 3.09 3.172 3.09 10.028 0 3.479.72 5.935 2.06 7.674 2.574 3.275 2.574 5.832 0 7.162-1.34.716-2.06 2.149-2.06 4.196 0 1.739-.618 3.275-1.545 3.582-2.163.92-.103 3.376 4.428 5.218 4.12 1.74 5.15 3.888 3.193 7.367-1.34 2.353-1.235 2.967.516 6.548 1.132 2.252 3.707 5.22 5.87 6.754 4.634 3.173 5.56 7.675 1.75 8.902-2.163.614-2.162.718-.308 2.048 1.854 1.432 1.853 1.636.205 4.4-3.707 6.343-.926 12.586 6.387 14.018 2.677.614 3.81.204 6.179-2.047 2.266-2.149 3.501-2.66 5.561-2.148 1.854.512 3.811 0 6.386-1.535 2.781-1.637 4.84-2.149 8.548-1.842 3.502.205 6.076-.307 8.651-1.637 3.502-1.944 3.605-1.944 5.665 0 6.077 5.628 8.24 6.855 13.183 7.47 8.24 1.125 13.801 5.73 14.934 12.176l.617 3.787 1.752-3.276c4.016-7.572 10.607-9.924 12.976-4.808 1.03 2.251 1.546 2.558 4.327 1.944 2.575-.614 3.707-.204 6.282 2.251 2.987 2.763 5.15 3.478 11.844 3.376 3.811 0 8.549 4.81 8.549 8.698 0 1.433 1.03 3.172 2.677 4.297 9.064 6.345 10.093 8.29 8.754 16.782-.412 2.558-.515 5.218-.31 5.832.515 1.638 6.387 4.094 14.523 5.936 3.708.92 9.373 3.172 12.668 5.014 3.296 1.944 6.694 3.273 7.518 2.966 4.223-1.637 8.755 2.457 8.755 7.88 0 1.535.515 1.842 2.368 1.433 1.236-.307 5.048.101 8.343.92 4.12 1.126 6.591 1.229 7.827.615 5.253-2.763 11.33 0 16.582 7.57 2.575 3.889 4.738 4.504 8.136 2.457 1.751-1.125 2.782-.92 6.49 1.126 3.707 2.047 4.839 2.25 6.796 1.228 1.75-1.024 2.884-.921 5.356.307 2.78 1.432 3.501 1.432 6.18.102 1.544-.818 3.5-1.535 4.324-1.535 2.163 0 5.15 3.786 9.579 12.074 4.429 8.39 8.548 11.665 11.947 9.517 1.133-.717 3.4-.92 5.356-.512 2.06.307 3.708.103 4.12-.51.412-.615 2.677-1.126 5.15-1.126 3.604 0 4.943.613 7.724 3.479 2.78 2.865 4.016 3.478 6.282 2.966 2.369-.41 3.09 0 4.222 2.355 2.06 3.99 6.799 7.265 8.343 5.73.824-.819.515-2.354-1.34-6.038-3.192-6.14-4.22-19.75-1.44-19.75.824 0 1.545-.51 1.545-1.021 0-.614-.721-1.024-1.545-1.024s-2.472-.921-3.502-1.944c-1.133-1.126-2.884-1.74-4.017-1.433-2.575.614-11.536-9.516-11.536-13.098 0-1.841-.308-2.046-1.235-1.125-1.648 1.637-7.21 1.637-8.858 0-.72-.717-1.235-2.15-1.235-3.377 0-1.228.514-2.66 1.235-3.376.927-.92.927-1.229 0-1.229-.618 0-1.648.922-2.266 2.15-1.544 2.66-5.56 2.25-5.972-.717-.206-1.126 1.339-4.502 3.399-7.367 1.956-2.865 3.604-5.525 3.604-5.832 0-.307-1.34-.513-2.987-.513-4.223 0-5.046-3.069-2.162-7.878 2.06-3.48 2.266-5.219 2.266-20.26 0-12.894-.413-17.397-1.752-20.978-.927-2.558-2.06-6.651-2.575-9.21-.412-2.557-2.265-7.98-4.016-12.175-1.957-4.502-3.193-9.21-3.193-11.973 0-4.195-.206-4.501-2.884-4.501-3.399 0-8.446-5.22-8.446-8.698 0-1.228 1.03-3.377 2.369-4.707 1.339-1.33 3.502-4.196 4.841-6.345l2.369-3.99-3.192-3.07c-2.884-2.967-3.399-3.07-6.283-1.944-3.913 1.638-5.253.818-5.253-3.275 0-2.456-.308-2.865-1.235-1.944-3.4 3.377-6.695-.101-5.459-5.934.515-2.149.102-3.786-1.649-6.038-2.06-2.865-2.162-3.172-.514-4.81 2.369-2.25 1.648-2.659-3.192-1.84-5.665.818-7.416 1.943-5.666 3.683 3.296 3.274-.823 12.075-5.87 12.075-3.502 0-8.343 3.376-8.343 5.934 0 2.66-4.017 4.707-6.9 3.479-1.03-.41-4.326-2.558-7.416-4.707-5.046-3.683-5.458-4.297-4.943-7.367.411-2.66 0-3.787-2.265-5.935-1.545-1.433-3.914-2.661-5.356-2.661-4.428 0-5.355-1.33-4.634-6.343.927-6.242.205-7.675-3.606-7.164-3.708.512-8.136-1.535-8.136-3.786 0-.818 1.237-2.558 2.782-3.786 2.677-2.149 2.78-2.353 1.338-5.014-2.472-4.605-7.519-8.083-11.947-8.083-3.09-.103-4.017-.512-4.326-2.046-.206-1.126.309-2.56 1.236-3.276 2.884-2.046-2.06-2.659-6.077-.715-2.163 1.024-4.428 1.33-6.282.92-3.296-.818-8.96-6.446-11.535-11.46l-1.855-3.479-4.016 2.046c-3.09 1.637-5.149 1.945-8.239 1.433-3.707-.614-3.913-.511-2.677 1.024 1.75 2.046.72 4.706-1.752 4.706-1.133 0-3.707-.716-5.664-1.534-2.06-.819-4.223-1.535-4.738-1.535-1.648 0-5.047 4.093-5.768 6.958-.412 1.534-1.442 3.581-2.266 4.502-1.854 2.047-8.033 2.456-9.063.717-.412-.614-3.192-.819-7.517-.41-5.768.512-7.52.307-10.919-1.432-3.707-1.945-4.222-1.945-5.767-.615-2.472 2.149-4.53 1.229-12.667-5.934l-7.005-6.14-2.06 2.148c-1.029 1.228-1.853 3.173-1.647 4.503.103 1.74-.927 2.866-4.943 5.117-5.768 3.172-10.918 3.684-12.978 1.228-.721-.921-1.236-3.581-1.133-6.14.103-3.581-.206-4.707-2.06-5.628-3.09-1.637-16.993-.512-19.26 1.535-4.119 3.786-8.547 1.33-11.225-6.038-1.648-4.502-2.163-5.116-5.047-5.423zM295.443 162.496c-.402 0-.875.277-1.586.776-1.957 1.433-1.854 1.536.412 4.401 1.236 1.535 2.575 3.684 2.987 4.605.309 1.023.927 1.84 1.442 1.84 1.03 0 1.237 3.48.31 6.856-.824 3.07-3.915 3.07-10.3-.307-6.386-3.274-8.137-5.32-9.167-10.846-.72-4.502-.927-4.502-1.957.41-.515 2.25-1.235 2.865-3.295 2.865-1.544 0-2.78-.717-3.09-1.842-.308-.921-.824-2.353-1.03-3.172-.824-2.456-5.046 1.33-4.737 4.196.206 2.66-2.987 4.91-6.9 4.91-.927 0-3.09 1.33-4.738 3.07-3.193 3.274-6.695 4.093-6.695 1.535 0-1.33-.515-1.228-3.605.205-3.295 1.535-3.707 1.535-5.458 0-1.03-.92-3.09-1.74-4.635-1.74-1.647 0-3.09-.818-3.81-2.046-1.751-3.275-4.223-2.661-3.502.92.927 4.4-3.81 9.108-10.196 10.233-5.767 1.023-6.18 1.33-5.253 3.581.515 1.433 1.854 1.638 8.034 1.433l7.312-.307-.206 3.275c-.206 1.74.206 3.581.72 3.888 1.958 1.228 1.03 5.526-1.544 7.265-1.442.921-2.575 2.354-2.575 3.07 0 .818-.927 1.433-1.957 1.433-1.545 0-2.163.818-2.369 3.273-.309 3.172-.514 3.378-4.84 3.685-3.501.307-5.046-.205-6.9-1.944-1.957-1.842-3.193-2.15-6.592-1.639-5.15.614-5.87 1.229-4.12 3.275 1.03 1.228.927 1.944-.31 3.99-1.44 2.15-1.44 2.56 0 3.992 1.443 1.433 1.443 1.944-.72 5.321-2.163 3.377-2.678 3.785-5.768 3.274-3.914-.614-6.281 1.33-6.796 5.935-.31 2.866-.721 3.172-6.18 3.99-5.355.82-5.871 1.126-6.386 3.99-.412 1.74-1.648 4.197-2.78 5.425-1.854 1.944-1.958 2.558-.722 4.4.721 1.227 2.163 2.149 3.09 2.149 1.03 0 2.267.92 2.885 2.046 1.236 2.251.514 6.14-1.133 6.14-1.751 0-1.03 7.98.72 9.003 1.546.819 1.544 1.639.308 7.778-1.03 5.526-1.853 7.265-4.222 8.902-1.545 1.126-2.883 2.762-2.883 3.58 0 .82-.618 1.433-1.236 1.536-.72.102.31.512 2.266.922 1.957.511 5.973.716 8.96.409 4.738-.307 5.561-.102 7.415 2.251 1.751 2.149 2.37 2.455 4.223 1.432 2.472-1.33 4.943-.716 8.65 2.15 3.502 2.762 3.4 4.502-.411 6.753l-3.09 1.739 2.473 2.66c1.339 1.433 3.295 4.093 4.325 5.833 1.03 1.841 2.163 3.377 2.575 3.377.412 0 1.75 1.534 2.986 3.479 1.133 1.944 4.635 5.218 7.724 7.265 3.09 2.046 5.666 4.093 5.666 4.503 0 1.944 6.077 1.943 9.887.102 2.163-1.126 4.429-2.046 5.15-2.046.617 0 2.883 2.762 5.046 6.241 2.369 3.889 5.046 6.753 7.106 7.777 3.09 1.432 3.709 1.433 6.695-.103 2.163-1.228 4.428-1.535 6.797-1.024 4.634.82 5.563 2.354 2.782 4.605-3.09 2.456-2.781 3.275.824 2.457 3.09-.716 6.797 1.228 11.637 6.14 1.34 1.33 1.647 1.33 2.162 0 .31-.82 1.649-1.536 2.988-1.536 1.338 0 2.78-.307 3.09-.716.926-.819-1.751-5.014-5.047-7.982-3.09-2.762-3.193-6.037-.31-7.981 1.751-1.33 1.855-1.637.62-2.456-1.03-.511-1.752-3.274-2.164-7.776-.721-8.39-1.03-8.903-4.428-8.903-3.811 0-10.61-7.47-10.61-11.665 0-1.74-.307-4.093-.616-5.32-.721-2.764 3.605-4.81 8.445-3.89 3.296.615 3.604.41 5.15-3.17 1.132-2.661 1.956-3.583 3.192-3.174 1.648.716 1.648.82-.205-10.231-.721-4.196-.723-4.298 3.397-6.14l4.223-1.74.31-6.753c.308-5.832.618-6.857 2.574-7.778 2.472-1.023 3.4-3.274 3.4-8.492 0-2.865.514-3.581 3.09-4.4 2.162-.818 3.089-1.842 3.089-3.275 0-2.149 3.604-5.627 10.196-10.13 2.883-2.046 8.857-2.455 9.887-.818.412.614 1.133.819 1.648.41.515-.307.721-1.024.31-1.535-.31-.512 0-1.74.72-2.559.927-1.126.927-1.842.103-2.66-1.957-1.945-1.442-4.502 1.133-6.242 2.163-1.432 2.266-1.534.412-3.58-2.369-2.661-1.957-5.731.926-6.14 1.751-.205 2.061-.82 1.65-2.968-.31-1.842.101-3.07 1.338-4.094 2.574-1.842 3.192-1.74 5.767.819 1.442 1.432 2.472 1.842 3.193 1.125.618-.614.103-1.636-1.443-2.864-1.442-1.126-3.294-3.172-4.22-4.605-1.649-2.455-1.65-2.967-.208-6.446 1.751-4.093 3.913-5.526 5.973-3.889.721.614 1.752.819 2.37.41 1.03-.717 3.913-9.415 3.295-9.824-.206-.102-1.545-.715-3.09-1.432-5.252-2.25-3.706-4.707 4.842-7.88 4.223-1.534 7.93-3.069 8.136-3.478.824-1.228-13.184-.614-15.553.716-2.78 1.535-6.693 1.535-9.989 0-2.163-.92-3.399-.818-6.9.717-3.296 1.535-4.532 1.637-5.87.716-1.03-.716-2.886-1.74-4.327-2.355-3.605-1.535-7.209-5.013-7.209-7.161 0-.921-.619-2.866-1.34-4.401-.795-1.398-1.227-2.001-1.813-2.004z"/><path d="M513.353 142.317c-.237-.022-.584-.01-1.047.016-3.399.102-6.592 1.842-10.712 5.73-5.87 5.73-11.947 10.54-13.08 10.54-.618 0-3.5-2.354-6.385-5.219-5.87-5.73-7.416-5.833-10.197-.716-.927 1.74-3.399 4.911-5.355 6.957-8.858 9.21-15.14 16.168-17.715 19.443l-2.78 3.58-11.124.206c-6.077 0-12.873-.307-14.933-.818-2.78-.717-4.428-.614-5.87.307-1.545.92-2.884.92-6.49-.205-6.076-1.842-18.229-1.945-21.216-.206-2.471 1.433-10.711 1.23-15.243-.306-1.957-.614-2.368-.102-3.604 4.605-1.545 5.935-4.738 8.595-7.622 6.14-1.236-1.024-1.647-.82-2.574 1.534-1.545 4.093-1.339 4.707 2.678 8.8 3.193 3.275 3.5 4.093 2.574 5.935-1.34 2.455-5.047 2.865-5.87.614-.412-.818-1.546-1.535-2.576-1.535-1.545 0-1.956.613-1.75 3.274.31 2.865-.103 3.48-1.957 3.684-2.78.41-2.986 1.432-.823 3.274 2.163 1.842 1.956 4.707-.721 6.548-1.854 1.33-1.957 1.842-.824 3.07 1.545 1.944.617 8.084-1.65 9.926-1.235 1.023-1.955.921-4.015-.102-3.296-1.74-6.695-.717-11.226 3.58-2.163 1.945-4.327 3.583-4.842 3.583-.515 0-.926 1.329-.926 2.966 0 2.558-.515 3.173-3.09 3.685-2.678.613-3.09 1.125-3.09 3.888 0 5.32-1.133 7.982-3.708 9.005-2.266.819-2.471 1.432-2.471 7.367 0 6.447 0 6.549-3.81 8.493-3.09 1.637-3.811 2.66-3.605 4.605 1.339 11.358 1.339 14.223.412 14.223-.618 0-1.443-.512-1.752-1.126-.412-.614-1.442.41-2.368 2.353-1.442 2.763-2.37 3.378-5.356 3.583-1.957.102-4.43.203-5.356.203-1.442.103-1.853 1.024-1.853 4.503 0 3.582.618 5.116 3.502 8.186 2.266 2.456 4.428 3.786 6.075 3.786 3.708 0 5.048 2.252 5.665 9.824.31 4.297 1.03 6.958 1.855 7.265 2.162.819 1.75 4.195-.619 5.423-2.78 1.433-2.574 2.354 1.03 5.73 6.077 5.73 6.282 11.665.515 11.665-1.854 0-2.575.717-3.09 3.275-1.236 6.037-1.647 6.855-3.707 7.469-1.75.614-1.853.921-.823 2.251 1.03 1.126 2.47 1.33 5.251.92 3.811-.613 4.018-.511 5.563 3.07 1.339 3.07 1.339 4.298.412 6.14-1.648 2.967-.62 4.502 2.985 4.502 4.12 0 9.889 6.14 8.962 9.619-.721 2.763.617 4.503 5.56 7.47 1.752.921 3.09 2.148 3.09 2.558 0 .409 1.34.818 2.988.818 2.472 0 3.09-.512 3.399-2.66.309-2.661 4.222-5.32 10.607-7.162 3.399-1.024 6.283-6.55 3.914-7.265-2.266-.82-1.545-5.424 1.03-6.345 7.107-2.66 9.27-3.07 11.124-2.046 2.265 1.125 2.368 2.25.823 5.115-.824 1.638-.72 2.559.721 4.094 1.236 1.432 1.544 2.865 1.03 5.832-.619 4.4 0 5.833 2.06 4.196 2.266-1.842 4.53-.308 4.53 3.171 0 2.763.207 3.071 1.958 2.048 3.192-1.637 5.562-1.228 8.55 1.535 1.544 1.432 2.985 2.557 3.294 2.557.31 0 1.545-1.944 2.78-4.298 1.236-2.455 4.43-8.084 7.108-12.586 2.78-4.502 5.252-9.618 5.56-11.255.722-3.172 3.503-6.447 9.682-11.359 2.06-1.637 3.296-3.581 3.296-5.014 0-1.432 2.266-5.116 5.459-8.902 3.09-3.581 5.87-7.674 6.18-9.107.411-1.535 1.75-3.376 3.09-4.297 4.119-2.66 9.164-11.358 8.34-14.325-.514-2.251 0-3.071 3.502-5.527 2.266-1.535 4.841-3.99 5.665-5.423 6.9-10.744 15.037-22.511 16.994-24.558 1.236-1.33 2.266-3.377 2.266-4.604 0-1.228 1.441-3.787 3.192-5.73 1.751-1.945 3.811-4.604 4.532-6.037.721-1.432 3.913-5.014 7.106-7.88 3.708-3.479 5.768-6.241 5.768-7.674 0-1.433 2.163-4.707 5.253-7.982 2.884-3.07 6.076-7.469 7.106-9.72 1.03-2.251 3.503-5.73 5.562-7.674 2.06-1.945 5.047-5.628 6.49-8.186 1.441-2.558 7.517-9.517 13.594-15.554 16.993-17.088 23.79-24.25 23.79-25.171 0-.512-1.442-1.229-3.09-1.638-1.75-.307-3.398-1.433-3.707-2.354-.309-1.023-1.03-2.865-1.649-4.093-.617-1.126-.823-2.66-.411-3.172 1.03-1.74-1.133-2.353-3.914-1.125-2.163 1.023-2.986.92-4.428-.41-1.03-.818-3.708-1.74-5.974-1.944-3.399-.204-4.222-.717-4.428-2.558-.206-1.33.412-3.377 1.235-4.605 2.266-3.172 2.06-5.627-.411-6.445-1.133-.307-2.06-1.025-2.06-1.639 0-.511-1.649-1.534-3.605-2.353-2.678-1.125-3.605-2.148-3.605-3.99 0-1.432-.72-2.762-1.545-3.172-2.06-.716-1.956-2.558.207-4.911 1.159-1.305 1.448-1.689.738-1.756zM61.36 128.251c-2.728-.068-4.302 1.964-1.917 5.366 2.37 3.377 1.854 5.525-1.545 6.65-1.647.615-4.634 2.252-6.488 3.685-2.06 1.637-4.841 2.66-6.901 2.66-2.06 0-4.634 1.023-7.106 2.967-2.06 1.535-5.15 3.684-7.003 4.604-1.854.921-3.914 2.662-4.532 3.992-1.545 2.865-5.665 6.957-9.579 9.413-2.78 1.842-2.882 2.048-2.573 10.131l.411 8.186-3.296.818c-2.987.716-3.4 1.33-3.4 4.196 0 1.944-1.338 5.117-3.191 7.88l-3.09 4.5 2.266 1.74c2.678 1.945 2.06 5.015-.926 5.015-3.193 0-3.298 1.125-.414 3.786 2.266 2.046 2.78 3.58 3.09 8.902.309 4.604-.103 7.367-1.236 9.618-2.163 4.093-2.162 4.196 1.03 5.321 3.811 1.433 2.885 4.4-1.647 5.22-2.884.511-2.266.716 2.883.818 4.944.102 6.387.409 6.387 1.637 0 .818-.928 2.046-2.061 2.762-1.854 1.126-1.853 1.433-.308 3.07 2.163 2.456.926 4.912-2.473 4.912-2.472.102-2.575.205-1.03 1.126 1.03.613 1.751 2.25 1.751 3.99 0 2.353-.72 3.376-3.09 4.604-3.81 1.944-3.914 3.377-.206 4.196 4.223 1.023 5.356 2.353 5.356 6.14 0 2.967-.514 3.684-4.119 5.526-4.532 2.25-5.047 4.093-2.575 8.8.824 1.637 1.545 4.195 1.545 5.73 0 4.707 4.12 7.674 11.535 8.493 3.605.41 8.239 1.125 10.505 1.738 3.913.921 3.914 1.025 3.399 5.118-.721 5.423-3.709 9.413-7.52 10.027-2.471.41-3.088 1.125-3.294 3.683-.31 2.66.309 3.684 2.987 5.629 2.266 1.534 3.5 1.944 3.81 1.125.205-.716 1.545-1.227 2.884-1.227 1.75 0 2.471-.614 2.471-1.944 0-1.126.515-2.354 1.03-2.66 1.34-.82 5.15.408 5.15 1.636 0 1.535 2.78 3.99 4.532 3.99 1.235 0 1.338-.613.514-3.274-1.648-5.73-1.338-6.037 3.915-5.73 5.15.307 5.664.921 8.548 8.698 1.545 3.99 4.53 5.218 7.209 2.865 1.338-1.228 4.532-1.945 10.711-2.252 11.638-.716 13.801.512 14.213 8.084.412 6.549 1.957 7.265 9.27 3.786 3.501-1.637 4.84-2.763 4.428-3.786-.618-1.74 4.326-9.413 6.077-9.413.617.102 4.429 3.069 8.342 6.65 7.622 6.958 8.548 7.47 11.844 5.423 1.647-1.023 2.575-.92 5.355.717 2.575 1.535 5.459 2.047 11.638 2.15 4.532.102 9.476.51 11.021.92 2.678.716 2.986.41 5.561-5.116 3.605-7.47 6.076-8.699 12.77-6.345 5.974 2.149 6.8 2.15 5.152.205-.618-.818-.928-2.353-.516-3.479.514-1.637-.103-2.456-2.78-3.786-1.855-.92-5.15-3.582-7.313-5.936-5.459-5.832-6.283-6.855-8.446-10.334-1.133-1.74-3.192-4.4-4.84-6.037-1.545-1.534-2.884-3.274-2.884-3.786 0-.41 1.648-1.637 3.605-2.558 1.957-.921 3.605-1.842 3.605-2.046 0-.205-1.443-1.332-3.297-2.457-2.884-1.74-3.502-1.74-6.18-.41-3.09 1.638-4.942 1.23-4.942-1.022 0-2.046-3.09-4.298-3.913-2.967-.824 1.33-17.715-.512-17.715-1.843 0-1.637 4.737-7.981 6.591-8.8 2.884-1.33 5.15-11.46 3.09-13.712-1.957-2.148-1.854-10.538 0-12.175 1.957-1.535.927-4.094-1.545-4.094-2.06 0-5.046-3.683-5.046-6.14 0-.92 1.029-2.761 2.162-3.99 1.338-1.33 2.471-4.195 2.78-6.855.412-4.298.31-4.503-2.986-6.038-3.192-1.33-3.605-1.33-5.253.511-2.163 2.558-4.016 2.56-9.372-.204-2.78-1.432-7.004-2.353-11.844-2.66-4.12-.307-7.725-.82-8.034-1.331-.206-.512.31-2.047 1.237-3.479 1.648-2.456 1.647-2.557-.516-2.557-1.236 0-4.12-1.023-6.282-2.353-5.047-2.763-5.561-6.243-1.236-8.187 5.047-2.15 4.944-4.912-.309-6.242-1.442-.41-2.575-1.023-2.575-1.535 0-.511-2.265-2.353-5.15-4.195-5.56-3.582-6.18-4.912-3.296-7.573 1.34-1.125 2.885-1.431 5.151-1.022 3.708.716 3.708.613 2.266-3.275-1.75-4.605.411-8.39 5.56-9.618 7.313-1.945 7.313-1.944 4.224-4.298-1.545-1.228-3.502-3.684-4.223-5.628-.927-2.149-2.781-3.99-5.356-5.218-3.708-1.74-3.81-1.843-3.81-7.778 0-5.218-.31-6.139-2.781-8.185-1.648-1.228-2.883-3.07-2.883-3.99 0-1.023-.825-2.048-1.752-2.457-1.03-.307-3.296-2.15-4.944-4.093-2.05-2.245-4.456-3.273-6.323-3.319zM209.362 0c-.927 0-13.802 10.95-14.934 12.689-.515.818-1.648.819-3.914-.103-2.575-1.023-3.295-.922-4.428.613-2.163 3.07-3.811 3.48-7.21 1.842-1.854-.92-4.53-1.84-5.973-2.147-1.854-.41-2.987-1.434-3.399-3.276-1.442-5.627-3.811 2.66-3.708 12.689.103 6.446-2.986 16.577-6.385 20.875-1.545 2.149-3.193 5.32-3.605 7.162-.31 1.841-1.03 4.196-1.545 5.117-.927 1.944-5.458 2.558-6.488.818-.824-1.228-3.605-.103-3.605 1.432 0 .716-2.987 4.196-6.592 7.778-4.737 4.707-6.797 7.47-7.312 10.027-.824 4.4-4.53 12.483-5.664 12.483-.515 0-1.236 1.024-1.545 2.251-.412 1.33-1.957 4.093-3.399 6.242-2.575 3.786-2.677 3.889-7.827 3.275-5.046-.614-5.46-.409-10.609 3.684l-5.251 4.4 2.162 2.762c1.235 1.637 3.09 2.866 4.12 2.866 1.133.102 2.06 1.126 2.368 3.07.31 1.637 1.751 3.479 3.09 4.195 2.78 1.535 3.914 5.525 2.987 10.64-.72 3.48-.619 3.685 3.398 5.322 3.193 1.228 4.532 2.457 5.356 5.117.618 1.842 2.678 4.604 4.43 6.036 2.677 2.047 3.088 2.867 2.161 4.3-.618 1.022-3.09 2.25-5.458 2.864-5.665 1.33-7.518 3.683-6.076 7.776 1.545 4.502.411 6.344-3.606 5.832-5.973-.614-6.076 1.331-.309 5.527 2.884 2.148 6.489 4.4 8.034 5.013 5.15 2.047 4.634 8.187-.721 9.517-1.442.41-2.574 1.023-2.574 1.535 0 1.33 7.003 5.217 9.372 5.217 2.472 0 3.501 2.252 2.06 4.912-1.03 1.842-.618 2.047 6.385 2.559 5.047.307 8.754 1.228 11.329 2.762l3.913 2.354 2.061-2.252c2.37-2.558 2.163-2.455 7.313-.92 2.78.819 4.12 1.841 4.634 3.683.515 2.251 1.03 2.456 4.326 1.842 2.06-.307 4.325-.613 5.046-.613.721 0 1.236-1.229 1.236-2.866 0-4.195 4.12-7.776 7.931-6.958 2.472.614 3.192.307 4.428-1.944 1.03-1.944 1.134-2.865.207-3.786-1.545-1.535-1.649-4.912-.207-4.912.72 0 .824-1.33.412-3.581-.515-3.172-.309-3.684 2.163-4.605 4.635-1.74 10.608-1.227 12.564 1.024 1.133 1.33 3.09 2.046 5.254 2.046 3.295 0 3.398-.205 3.09-3.377-.207-2.763.101-3.376 2.059-3.58 1.236-.205 2.266-.921 2.266-1.638 0-.716 1.133-1.842 2.575-2.456 2.678-1.228 3.398-3.684 1.44-4.912-.617-.307-.925-1.944-.719-3.581l.412-2.864-7.21.203c-7.003.205-7.209.103-8.239-2.66-1.339-3.582-.103-4.809 6.18-5.934 6.385-1.228 9.062-3.889 9.165-8.8 0-3.48.31-3.889 2.782-4.196 1.957-.204 3.192.306 4.119 1.739.927 1.432 2.369 2.15 4.532 2.15 2.06 0 3.501.613 3.913 1.636.618 1.535.824 1.535 3.193 0 3.192-2.046 5.356-2.046 6.386-.102.824 1.33 1.441 1.023 3.913-1.535 1.648-1.637 3.914-3.07 5.047-3.07 2.987 0 4.943-1.432 4.223-3.171-.618-1.74.205-3.07 3.604-5.322 3.913-2.66 6.18-2.251 6.9 1.33.721 3.888 2.78 3.48 3.193-.613.206-1.637.825-3.377 1.237-3.888 1.442-1.433 3.914 1.125 4.635 4.808 1.235 6.14 1.647 6.754 5.972 9.21 6.489 3.786 8.651 4.195 9.372 1.944.618-1.842-1.75-7.777-3.604-8.902-.515-.41-1.854-2.56-2.987-4.81-1.957-4.093-1.956-4.4-.205-7.879 1.236-2.66 2.471-3.785 4.634-3.99 3.502-.409 5.356-3.48 3.811-6.243-2.678-5.014-.618-7.264 6.18-7.161 1.442 0 3.81-.206 5.355-.615 2.163-.614 2.987-.205 4.428 1.944 2.37 3.582 3.605 3.275 7.004-1.535 3.707-5.423 3.502-6.446-.824-3.99-4.635 2.558-7.93 2.558-10.196.103-2.471-2.66-1.339-4.196 3.09-4.196 3.502 0 8.65-2.456 8.65-4.195 0-.512-1.235-.409-2.78.205-5.767 2.149-8.96-.512-6.488-5.321.926-1.637.72-2.15-1.545-2.968-2.884-1.126-3.708-5.526-1.133-6.447.824-.307 1.648-1.841 1.854-3.479.412-3.683-2.575-5.525-6.592-3.99-2.162.819-3.192.614-4.737-.716-2.163-1.944-4.945-2.252-5.872-.717-1.338 2.251-7.414 1.024-10.607-2.046-1.854-1.74-4.327-3.07-5.563-3.07-1.338 0-3.295-.716-4.325-1.534-1.133-.921-4.532-1.639-7.724-1.639-8.446-.204-11.74-1.125-12.462-3.479-1.75-6.446-6.591-9.72-15.449-10.64-4.943-.512-5.664-.922-5.972-2.968-.206-1.433.822-3.582 2.676-5.73 2.266-2.66 3.4-5.32 4.43-10.846.72-3.991 1.648-7.471 2.163-7.778 1.854-1.126.618-3.172-3.811-5.73-4.017-2.456-4.635-3.274-4.635-6.344 0-3.479-.104-3.581-8.24-6.14-4.429-1.432-8.548-2.66-8.96-2.66z"/></svg>