<svg xmlns="http://www.w3.org/2000/svg" viewBox="0 0 122.23 122.88" fill="currentColor"><path d="M122.23 12.35v10.54c0 1.29-1.21 2.35-2.69 2.35H77.85c-2.84 5.92-8.89 10.01-15.9 10.01-7 0-13.05-4.09-15.89-10.01H2.69C1.22 25.24 0 24.18 0 22.89V12.35C0 11.06 1.21 10 2.69 10h43.37C48.9 4.08 54.95 0 61.95 0S75 4.09 77.84 10h41.69c1.49 0 2.7 1.06 2.7 2.35zM49.57 112.88c-2.84 5.92-8.89 10-15.9 10-7 0-13.05-4.08-15.89-10H2.69c-1.48 0-2.69-1.06-2.69-2.35V99.99c0-1.29 1.21-2.35 2.69-2.35h15.09c2.84-5.92 8.89-10.01 15.89-10.01s13.05 4.09 15.89 10.01h69.97c1.48 0 2.69 1.06 2.69 2.35v10.54c0 1.29-1.22 2.35-2.69 2.35H49.57zm54.55-43.15c-2.84 5.92-8.89 10.01-15.89 10.01s-13.05-4.09-15.9-10.01H2.69C1.22 69.73 0 68.67 0 67.38V56.85c0-1.29 1.21-2.35 2.69-2.35h69.64c2.84-5.92 8.89-10 15.89-10s13.05 4.09 15.89 10h15.42c1.48 0 2.69 1.06 2.69 2.35v10.53c0 1.29-1.21 2.35-2.69 2.35h-15.41z" fill-rule="evenodd" clip-rule="evenodd"/></svg>