<svg xmlns="http://www.w3.org/2000/svg" clip-rule="evenodd" fill-rule="evenodd" viewBox="0 0 730 758" fill='currentColor'>
    <path d="M416 0h12q0 2.5 2 4-3.6 1.4-2.5 5 3.9 8.4 9 16a14 14 0 0 0 4 3q0 4 3.5 5.5-6.5 2.8-2 8-5.8 3 .5 5.5 2.9-.2 5-2l5.5 5.5q-5.8-1.5-12-1-2.7 7 3 12l-5 1a5 5 0 0 0-1 2.5q1.8 4 5.5 7a42 42 0 0 0 4.5 9.5 3.5 3.5 0 0 0-3 3 41 41 0 0 0 6 15q-1.5 1-2 3 1.5 8.2 9 11.5a248 248 0 0 1 16-1q0 2.7 1.5 5a21 21 0 0 1 6.5 7.5q7.5 2 12-4 1.2-1 2 .5-4.4 5 1 8.5-3.4.5-6.5-1.5-8.5 12.2 4.5 20.5 3.3 1.2 5.5-1.5a9 9 0 0 0 7.5 3q-.8 3-.5 6 3 2.1 5.5 4.5a33 33 0 0 1-5 4.5 15 15 0 0 0 3 3.5q-.7.7-1 1.5 1 3 1.5 6 2.6.8 4.5 0a9 9 0 0 0-1 5h3v5q4.3-.2 8.5 1 3-1.5 4-5a21 21 0 0 0 6 5l6.5-1.5q3.2-2.8 7.5-3.5.8-3.4.5-7 6 .9 10.5-3 1.5 1.4 2.5 3a7 7 0 0 0-1.5 6q2 2 4 0 .8 2.4.5 5-4.5-.3-9 .5-1.5 1.5-.5 3.5 3.9 7.2 6 15a9 9 0 0 1 5 6q3.6 1.5 7.5 1l1-6q8.1 2.1 7-6l11 1.5a30 30 0 0 0 3 7 11 11 0 0 0-2 12q-4.7 8.8 2 16-5 7.8 4 10-4.6 1.5-4.5 6.5-4.8 3.3-3 9a23 23 0 0 1 9 7l12.5 18.5a6 6 0 0 0-4 4.5q1 4.5 2.5 9 3.3 1 6 0 0 4-1.5 8 2 6.7 7 11.5 5.4.4 9.5 3.5a9 9 0 0 0 6-4q2.4 1.2 4.5 3l3-2q4.2 4.5 6.5 10 2-.5 3-2 .3-2.6 1.5-5 4 5.1 10 3 3.3 3.2 8 3 7.3-1.1 13.5-5 6.5.3 11 5 1 4.2 3.5 7.5 5.8-1.5 10.5 2.5 1.3 5.2 3.5 10 5.4 1.5 9-3l1 1-6 11q-11.2 5.8-10.5 18 3.8 2.2 6.5 5.5l-1.5 1.5a16 16 0 0 0-13.5-.5q-1 2.1-1.5 4.5-3.9 1.3-7 4a4 4 0 0 0 0 4q3.3 2.8 5.5 6.5l-1.5 1.5q-4-4-7 1-2-2-4 0-1.4 2.3-1.5 5 .9 4.4 3 8-7.7-.3-14-4-5.2-1-5 4-2 .3-3.5-1-1.2-3.6-3.5-6.5a34 34 0 0 1-11-2.5 6 6 0 0 0-2-5 36 36 0 0 0-9.5 8q2.7 7.2 3 15-.6 2-1.5 4a88 88 0 0 0-7.5 5 40 40 0 0 0-4.5-6q-9.5 1.5-14-7.5-12.3-1.7-13 11-3.9 1.3-7 4-4 .5-8 1.5a51 51 0 0 1-4 5.5 5 5 0 0 1-3 .5q.3-4.7-1.5-9-6.6-4.8-9 3-2 2.5-5 4a47 47 0 0 0-20.5-4q-7.7 11.2-18 1.5a7 7 0 0 0-5 0q-6 3.3-10.5 8.5l-15.5 5.5a19 19 0 0 0-2.5 13.5q3 3.9 3 9 3.8 1.5 4.5 5.5a29 29 0 0 0-3 8.5q-4 1.5-7.5 4-2 6 3.5 8a4 4 0 0 0 3-2.5q4-.5 8-1.5 1.5.7 2.5 2a17 17 0 0 0 3.5 8.5q-3 2.7-4.5 6.5-3-1.5-6.5-1 .3 1.5-.5 3-8.1 1.5-11.5 9 4 3.6 8.5 7a8 8 0 0 0 5.5 7.5q-3.6 3-4.5 7.5a7 7 0 0 0-2.5-2q-7.5 2-3 8l-1 1q-7.5.6-14 4-2.6 3.5-2 8-2 .3-3.5-1-1.2-3-1.5-6a59 59 0 0 1-13-6.5q-2.1-1.2-4 .5-1.2 5.4-1.5 11a6 6 0 0 0-2.5 6q8.7.4 10.5 9a32 32 0 0 0 7.5 5.5q11 1 22-.5 3.5 6.8 6.5 14 .3 5.6 1.5 11a7 7 0 0 1 4 3q-5.4 6-6 14-3.4-1.3-7-1.5a10 10 0 0 1-7 5q-3.2 6.4 4 7.5l3 4q3 1.8 6 0 1.9 3.3 4 6.5-6.2 3.6-2 9-1 2.6-1.5 5.5a10 10 0 0 0-7.5 7q5.6 1.5 11 3.5l-6 6a45 45 0 0 1-4 15.5 27 27 0 0 1-2 19q8.6 15.4 1 31-2 2-5 2l-8-1.5q-3.8-3.5-7-8-8.7-.8-16 4a21 21 0 0 0-9.5 2.5 7 7 0 0 0-5.5-.5 25 25 0 0 0-5 7.5q.7 1.5 2 2.5-3.3 1.5-6.5 3.5a26 26 0 0 1-6.5-5.5q-8.4-.6-11-8.5a3 3 0 0 0-3-1q.9-4.5-3-6.5-17.4.8-35 0 1.5-11.1-9-16-5.7-5.8.5-11.5 1.2-7.2-6-9-2.5 0-4 2l-1 10q-5.7 3-11 7-1.5-2.5-2.5-5.5-7.7-3.2-14.5-7.5l-2.5 1a26 26 0 0 1-6.5 8q-5.6-4.2-12.5-3.5-2 3.1 1 5.5l-7.5 4q-6.8-14.3-16-2l-1.5-1.5q4.5-5.7 3-12.5a37 37 0 0 0-12-7.5q-5.7-9.9-16-4.5a11 11 0 0 0-3.5-2q-2.5 2.2-4.5-.5 2-4.2 5-8a20 20 0 0 0-8.5-5.5 4 4 0 0 1 0-4q7.2-5.7-2-8-3.4 2.2-5.5-1a7 7 0 0 0-5-1q.9-4.6-3-7 1.8-4.9 2.5-10 3-1.2 6-3a53 53 0 0 0 2-13q3.1-4 8-6 .3-8.9-1.5-17.5-3.9.9-7.5 3.5-2.6-1.7-5 0a20 20 0 0 1 2.5-15 20 20 0 0 1-1-5h-5q-1.3-5.4-4-10.5 3.3-8.7-6-10 5.2-2.1 1-6 .5-2 2-3 5.4-2.7 10-6.5 3.6 3.6 9 3.5 5.4 6.8 13.5 4.5 3 3.4 7.5 4a6 6 0 0 0 2.5-5l4-2q1.3-9-.5-18a51 51 0 0 0-12-6q.8-1.7 1-3.5l-2.5-14.5q-1.8-.9-3.5-2l.5-1q4 2.1 8.5 1.5a5 5 0 0 0 1-2.5q-2.2-8.5-6-16-5.4.3-1-3a71 71 0 0 0-17-4.5l-1-1q1.3-1 2-2.5-1.7-2.8-2.5-6-6 0-8.5-5.5-4.8-.5-6 4.5-7.4-8.7-8 3-4.2 1-8 .5-.9 6.5-6 3 5.4-3.2 1-8a10 10 0 0 0-8.5 2.5 4 4 0 0 1-2-1q-1.2-2.6.5-5 3.4-2.7 7-5a23 23 0 0 0-7-11.5q-6.6.5-8-6 2.7-4.2 6.5-7.5l1-7q6.9-7-.5-14.5-5-3.7-8.5 1.5a16 16 0 0 0-5.5-6l-2-5.5q-4 0-8 1.5a5 5 0 0 1-2.5-1q-3.3-6.7-7.5-13 2.6-6 3.5-12a12 12 0 0 0-7.5-5q-2.7-6-9-4-6.5-1.8-7-8.5-1.5-.9-2.5.5-.6-1.4-1.5-2.5-5.4.5-8-4-1.7-.9-3.5-1.5-3.4 2-6 5-1 2.8 1.5 4.5a20 20 0 0 1-4 3.5q-3.7-2.5-7.5-4-4.4.5-5.5 5l-7 2q-3-2.8-6.5-5-4.2 2.3-6.5 6.5-9 2.8-7-6.5-11.4-4.2-23-9l-1-1a7 7 0 0 0 1.5-5 54 54 0 0 0-8.5-2.5q-.8-1.5-2-2.5a11 11 0 0 1-7 4 52 52 0 0 1-16-4q-1.2-1.9-1.5-4a8 8 0 0 1-3.5-3q4.2-4.5-2-6.5 1.3-3.7 2-7.5a25 25 0 0 0-7-6.5l1-1.5q3 1.5 6 .5 4.4-3.4 6.5-8.5 4.5 2.3 5.5-3-1.3-2.4-1.5-5 3.7-3 7.5-5.5a4 4 0 0 0-1-2 56 56 0 0 0-12-2l-2-2q2.5.2 5 1.5 3.3-.6 4-4-7.5-9.7 5-8.5 1.2-2.6 1.5-5.5 3.3-2 5.5-5a15 15 0 0 0-3-3.5 74 74 0 0 1-9-4 8 8 0 0 1 6-3q2.8-3 4-7 3.3-.3 5.5-2.5-.8-7.2-2.5-14.5a4 4 0 0 1 5-1 9 9 0 0 0 5 4.5q5.5-2.3 1-6.5 4.5-4.7-1-8 6.8-7.4-2.5-11.5a15 15 0 0 0-9-11q-1.1-3 .5-5.5 7-.7 8-7.5 7.5 4.8 5.5-4a95 95 0 0 1-7.5-7.5 4 4 0 0 0 1-2l-5.5-7.5a4 4 0 0 1 0-4l6.5 5a15 15 0 0 0 3.5-3q2 1.5 4.5 2 3.4-1.6 6.5-4 4.7 2.5 4.5-3-1.1-3.7-2.5-7 7.6 3.7 14.5 8.5 8.4 1.9 5.5-6.5a26 26 0 0 1-3.5-5q2-5.7 5-11a12 12 0 0 0-7-5.5q-4.3-3.8 1-5.5a7 7 0 0 0 1-5q-4.5.6-4-4 .9-5 6-4-.3-2.4 1-4.5 3 .4 6 0l2-4.5q5.7-4.5 12.5-7 4.3 3.3 9.5 3.5 4-4.5 0-9a85 85 0 0 1 12.5-9.5l1.5 1a13 13 0 0 0-2.5 8q8.8 4 16 10 2.4-1.2 4.5-3 4 5.8 7-1 2.4 1.5 5 .5 6.6-8.7 9 2.5 1.2 1.4 3 2 4.5-1.7 8-5 8 1 15 4.5a25 25 0 0 0 13.5-2.5q1-3-.5-6 14.4-9 23.5-24 4 3.6 9.5 3.5 2.1 4.3 4.5.5 5.6 2.9 8-3 5.8 1.5 6.5-5 4.5.3 9-.5 2.5-6.7 5.5-13.5 3-3.5 7-2a10 10 0 0 0 3-3q8.2 3.3 16.5 6 6.6-2.2 8.5-9 3.9 5.1 5.5 0h4q.1-4.8-2-9 1.2-2.5 3.5-4 3 3.3 7 1 5 3.6 9.5 7.5 3 1 6 0 5.3-4 11-7l7-9q9.7-6.5 19.5-12.5l1 4a5 5 0 0 0 2.5 1q2.5-1.5 4.5-4 2.3.7 4.5 1a62 62 0 0 1 13-3.5q6.3-2.2 2-7a7 7 0 0 0 4-3.5q7.8-3.3 15-7" class="prefix__layer"/>
</svg>
